HIERARCHY
ROOT Hips
{
  OFFSET -35.2597 29.1586 114.425
  CHANNELS 6 Xposition Yposition Zposition Zrotation Xrotation Yrotation
  JOINT LeftUpLeg
  {
    OFFSET 8.64259 1.95398 -2.38835
    CHANNELS 3 Zrotation Xrotation Yrotation
    JOINT LeftLeg
    {
      OFFSET 43.7702 0 0
      CHANNELS 3 Zrotation Xrotation Yrotation
      JOINT LeftFoot
      {
        OFFSET 40.6238 0 0
        CHANNELS 3 Zrotation Xrotation Yrotation
        JOINT LeftToeBase
        {
          OFFSET 12.7242 0 0
          CHANNELS 3 Zrotation Xrotation Yrotation
          End Site
          {
            OFFSET 0 0 0
          }
        }
      }
    }
  }
  JOINT RightUpLeg
  {
    OFFSET -8.2249 1.95398 -2.59336
    CHANNELS 3 Zrotation Xrotation Yrotation
    JOINT RightLeg
    {
      OFFSET 43.5653 0 0
      CHANNELS 3 Zrotation Xrotation Yrotation
      JOINT RightFoot
      {
        OFFSET 40.6238 0 0
        CHANNELS 3 Zrotation Xrotation Yrotation
        JOINT RightToeBase
        {
          OFFSET 12.7242 0 0
          CHANNELS 3 Zrotation Xrotation Yrotation
          End Site
          {
            OFFSET 0 0 0
          }
        }
      }
    }
  }
  JOINT Spine
  {
    OFFSET 0.165834 0.87714 6.61349
    CHANNELS 3 Zrotation Xrotation Yrotation
    JOINT Spine1
    {
      OFFSET 7.38963 1.71661e-005 0
      CHANNELS 3 Zrotation Xrotation Yrotation
      JOINT Spine2
      {
        OFFSET 11.9445 1.14441e-005 0
        CHANNELS 3 Zrotation Xrotation Yrotation
        JOINT Spine3
        {
          OFFSET 14.7254 4.19617e-005 0
          CHANNELS 3 Zrotation Xrotation Yrotation
          JOINT Spine4
          {
            OFFSET 10.9679 0 0
            CHANNELS 3 Zrotation Xrotation Yrotation
            JOINT RightShoulder
            {
              OFFSET 2.46616 -1.6653 3.69651
              CHANNELS 3 Zrotation Xrotation Yrotation
              JOINT RightArm
              {
                OFFSET 13.0012 0 0
                CHANNELS 3 Zrotation Xrotation Yrotation
                JOINT RightForeArm
                {
                  OFFSET 28.7848 1.62311e-005 0
                  CHANNELS 3 Zrotation Xrotation Yrotation
                  JOINT RightHand
                  {
                    OFFSET 26.5688 1.62095e-005 0
                    CHANNELS 3 Zrotation Xrotation Yrotation
                    End Site
                    {
                      OFFSET 0 0 0
                    }
                  }
                }
              }
            }
            JOINT LeftShoulder
            {
              OFFSET 2.38034 -1.29275 -3.7523
              CHANNELS 3 Zrotation Xrotation Yrotation
              JOINT LeftArm
              {
                OFFSET 16.3182 6.07031e-005 0
                CHANNELS 3 Zrotation Xrotation Yrotation
                JOINT LeftForeArm
                {
                  OFFSET 27.0901 0 0
                  CHANNELS 3 Zrotation Xrotation Yrotation
                  JOINT LeftHand
                  {
                    OFFSET 24.5451 1.51738e-005 0
                    CHANNELS 3 Zrotation Xrotation Yrotation
                    End Site
                    {
                      OFFSET 0 0 0
                    }
                  }
                }
              }
            }
            JOINT Neck
            {
              OFFSET 5.0226 -0.0266342 0
              CHANNELS 3 Zrotation Xrotation Yrotation
              JOINT Head
              {
                OFFSET 6.69364 2.86102e-005 0
                CHANNELS 3 Zrotation Xrotation Yrotation
                End Site
                {
                  OFFSET 0 0 0
                }
              }
            }
          }
        }
      }
    }
  }
}
MOTION
Frames:	18
Frame Time:	0.0416667
-20.5837 100.593 56.4109 102.049 26.9693 84.4497 -174.906 -6.06502 87.6235 -11.4644 -1.6237 0.0552227 70.6543 6.37811 -1.11345 13.1122 -14.9474 9.11026 173.875 -5.05177 88.7699 -14.0514 -17.9744 -1.71009 65.5604 -3.77267 0.410264 24.4353 0.578912 3.78649 0.101808 7.92051 -90.0335 11.033 0.187186 -0.0846384 -0.637995 0.183307 -0.092805 -23.1733 0.20396 -0.024475 -3.1606 0.203961 -0.0244705 86.3359 -34.7021 -111.813 36.3193 0.480058 -21.3247 -2.36174 1.3512 -34.9281 -5.36852 0.941872 -28.1517 -87.5477 -57.4647 83.6111 -24.013 -10.3676 -10.1334 -15.1242 -17.458 -48.9808 -13.7593 1.13831 -16.6484 -7.25275 -6.32587 -6.28162 -5.38537 -5.84129 0.0289029 
-20.6038 100.584 56.3399 101.863 27.513 84.474 -174.928 -5.68866 87.6595 -11.6521 -1.27533 0.0584347 69.7579 5.70592 -1.14047 15.2585 -12.8336 8.26454 173.701 -4.89463 88.6632 -14.0039 -17.701 -1.52006 65.6705 -3.8951 0.353691 24.563 0.580442 3.63358 0.131251 7.90591 -90.0651 11.0622 0.231132 -0.151764 -0.608716 0.224226 -0.161798 -23.144 0.266045 -0.0752869 -3.13136 0.266067 -0.0752809 86.6816 -34.1919 -111.396 36.184 1.30095 -23.391 -3.86989 -1.18601 -30.7825 -3.55763 0.686057 -32.1948 -87.8138 -58.0445 83.3323 -23.8636 -10.5286 -10.3835 -13.7727 -16.1737 -48.7381 -13.1314 0.990934 -15.829 -6.86635 -2.20373 -4.36363 -5.78134 -1.91167 1.42108 
-20.6792 100.547 56.2426 101.886 28.4253 84.4251 -174.786 -5.35411 87.809 -12.1941 -0.174894 -0.0701093 70.6316 6.19449 -1.46422 14.2263 -14.3391 9.34224 173.423 -4.95124 88.5593 -13.8492 -17.3848 -1.1938 65.9558 -4.161 0.3655 24.3656 1.02493 2.54906 0.14833 7.90599 -90.0815 11.0621 0.257542 -0.186911 -0.608854 0.24906 -0.198074 -23.1442 0.301801 -0.100872 -3.13153 0.301802 -0.10087 86.3675 -34.3626 -111.899 35.7929 1.75196 -21.3817 -3.11333 0.193979 -32.881 -4.07522 0.78238 -31.4112 -88.0907 -58.3667 83.002 -24.1708 -9.99741 -10.1911 -13.9784 -15.906 -49.6269 -11.1356 0.689306 -14.3935 -6.19218 0.678671 -3.62236 -6.59186 0.872288 2.44626 
-20.7521 100.521 56.0242 101.488 29.2249 84.3568 -175.004 -4.88274 87.4936 -12.1863 0.233978 -0.0652186 69.7625 5.73187 -1.18045 16.1283 -12.2202 8.25018 173.071 -4.464 88.1972 -14.093 -17.103 -0.962987 66.191 -4.28894 0.242737 24.3779 1.15839 2.13909 0.169367 7.87786 -90.065 11.1184 0.306904 -0.159061 -0.552542 0.299613 -0.172423 -23.088 0.340494 -0.059477 -3.07532 0.340519 -0.0594706 86.357 -34.5722 -111.829 35.4644 2.24331 -20.7301 -3.07924 0.246211 -33.2133 -4.23998 0.823403 -31.4655 -88.088 -58.2075 82.9808 -24.7609 -9.23571 -10.6382 -13.9036 -16.1661 -49.0048 -10.8176 0.706466 -15.0977 -5.52968 2.6948 -3.25239 -6.76424 2.82505 3.30073 
-20.7129 100.496 55.7619 101.163 30.0559 84.4883 -175.009 -4.44087 87.4626 -12.5158 0.788449 -0.113915 70.056 5.92454 -1.1601 15.801 -12.2333 7.95395 173.088 -4.29142 88.148 -13.9182 -15.5505 -0.935875 65.7701 -3.98076 0.769747 25.6852 0.177058 3.51569 0.197204 7.86502 -90.1032 11.1442 0.344601 -0.238986 -0.526743 0.333762 -0.253933 -23.0622 0.40049 -0.124369 -3.04955 0.40051 -0.124368 86.4562 -34.3782 -111.73 34.9853 3.0602 -21.2255 -3.34123 -0.199186 -31.7946 -3.1274 0.606009 -33.4407 -88.152 -58.7295 82.9751 -25.1726 -8.61183 -11.4792 -13.5715 -16.0742 -48.5332 -9.86939 0.560978 -14.2892 -4.77533 3.89567 -2.37313 -7.10359 3.93151 3.57102 
-20.6937 100.482 55.3404 101.396 30.794 84.1069 -175.112 -4.82301 87.1884 -12.2249 1.48705 -0.187108 69.9613 6.05942 -1.04976 15.6832 -12.0703 7.61249 172.811 -4.51236 87.7402 -14.1154 -15.0909 -0.941082 66.0849 -4.11664 0.682133 25.6507 0.192008 3.51037 0.212513 7.90577 -90.0959 11.0627 0.378248 -0.22727 -0.608213 0.367907 -0.243707 -23.1438 0.429108 -0.103075 -3.13112 0.429071 -0.103082 86.2265 -34.3405 -112.166 35.0207 2.87838 -19.9989 -2.1133 1.84723 -33.5873 -5.5047 1.10688 -31.3166 -88.0483 -58.6831 83.1093 -25.6857 -8.26428 -15.0851 -11.8334 -17.012 -43.3163 -13.3708 1.19465 -17.714 -4.42441 4.58422 -1.7816 -6.86887 4.58115 3.35182 
-20.6474 100.473 54.8319 101.219 31.7238 83.9965 -175.076 -4.86258 87.0117 -12.1031 2.46634 -0.416607 70.2307 6.38843 -1.15237 16.1509 -12.4217 8.55432 172.525 -4.62073 87.3884 -13.9475 -14.5274 -0.838867 66.2163 -4.1519 0.768289 25.8946 0.258558 3.00587 0.207922 7.87799 -90.0867 11.1183 0.373642 -0.20893 -0.552659 0.364108 -0.225179 -23.0882 0.419161 -0.0869699 -3.07557 0.419175 -0.0869721 86.4044 -34.3881 -111.821 34.6833 3.66998 -21.5891 -3.1703 0.119633 -30.4352 -3.8425 0.818839 -34.0055 -87.9877 -58.7 83.1948 -25.9274 -7.84543 -14.7269 -11.8492 -16.5487 -44.16 -12.3906 0.971791 -16.4532 -3.89205 4.83532 -1.22985 -7.2421 4.80011 2.76671 
-20.5084 100.455 54.1657 101.027 32.604 83.9146 -175.368 -5.11069 86.6072 -11.7 2.70306 -0.298737 70.5183 6.70098 -1.58793 14.4056 -12.9047 7.57439 172.269 -4.89556 87.0114 -13.5767 -13.7882 -0.809284 66.2166 -4.05106 0.775032 26.2285 0.035624 3.2906 0.199143 7.86612 -90.0966 11.142 0.3516 -0.22643 -0.528926 0.341283 -0.241685 -23.0644 0.403397 -0.110285 -3.05177 0.403377 -0.110295 86.4934 -34.2806 -111.704 33.268 5.61958 -22.9161 -5.82673 -5.62825 -27.2422 -0.377083 -0.0725411 -38.0448 -87.9703 -58.707 83.2195 -26.2008 -7.48116 -15.2841 -11.6864 -16.6258 -43.673 -12.4853 0.984212 -16.471 -3.47142 4.86799 -0.740892 -7.40884 4.78931 2.54824 
-20.43 100.413 53.3875 100.953 33.626 83.6028 -175.619 -5.35022 86.0045 -11.6104 3.36754 -0.352479 70.6924 6.97458 -1.29594 15.6253 -12.6224 8.33324 171.818 -5.19267 86.3651 -13.3538 -13.4369 -0.758912 66.5757 -4.28304 0.895943 26.5123 0.205748 2.39512 0.175568 7.84039 -90.1063 11.1934 0.300057 -0.241107 -0.477562 0.289174 -0.254086 -23.0129 0.358656 -0.139777 -3.00028 0.358654 -0.139777 86.7837 -33.8745 -111.342 35.4736 1.96083 -18.4746 1.44196 6.8772 -36.775 -8.16163 1.53664 -28.491 -87.9866 -58.8266 83.2157 -26.3781 -7.25531 -15.9702 -10.9945 -16.1969 -42.9076 -12.4418 0.965271 -16.3112 -3.71465 4.8069 -0.273218 -6.9457 4.6897 2.49288 
-20.2256 100.307 52.6695 100.715 33.8023 83.7598 -175.439 -5.37911 85.9609 -11.9307 3.74119 -0.65667 71.2283 7.30526 -1.28688 15.3104 -12.6679 8.10292 171.869 -5.1847 86.2376 -13.7351 -12.8005 -0.962 66.9128 -4.52678 0.951198 26.8426 -0.00838209 2.65318 0.252175 7.82273 -90.1258 11.229 0.443438 -0.294074 -0.441911 0.430082 -0.313311 -22.9776 0.511318 -0.147209 -2.96494 0.511308 -0.147211 86.8005 -34.0917 -111.22 34.1029 4.33959 -19.9672 -2.71843 0.908867 -31.9622 -3.51186 0.712661 -34.0468 -87.9319 -58.1839 83.1915 -27.0216 -6.1118 -14.3911 -12.0808 -16.0058 -45.6356 -9.77452 0.554663 -14.3863 -3.38034 4.52756 -0.265956 -7.07146 4.42158 2.21273 
-20.1451 100.079 51.8339 100.825 35.0143 83.4371 -175.212 -5.07745 85.7712 -13.3221 5.14679 -1.07401 72.2205 8.08278 -0.787845 14.6567 -12.5393 7.30845 171.678 -4.77684 85.8574 -15.407 -11.6062 -1.05411 67.7406 -5.2092 0.873632 28.2078 -0.475901 2.4016 0.197296 7.82796 -90.1396 11.2183 0.327758 -0.310203 -0.452598 0.313795 -0.324337 -22.9879 0.405838 -0.197355 -2.9753 0.405836 -0.197358 86.7063 -34.1444 -111.371 33.6301 5.06895 -20.6515 -3.11452 0.239576 -30.229 -3.43514 0.686974 -35.3794 -87.9326 -58.1686 83.1883 -27.6863 -5.41187 -16.4414 -11.2508 -16.4725 -42.9904 -9.80871 0.642205 -15.5989 -3.42861 4.23342 -0.17122 -6.72369 4.14245 1.85114 
-19.9877 99.617 51.1318 101.242 35.761 83.0329 -174.613 -4.2855 85.9118 -16.4066 6.23405 -1.66248 74.2952 8.95868 -1.04058 15.2309 -12.5416 7.84521 172.135 -3.78956 85.9349 -18.9633 -9.64348 -1.46876 69.0345 -6.58566 0.932179 30.3201 -1.33436 2.46732 0.207521 7.86002 -90.1543 11.1542 0.341427 -0.340527 -0.516751 0.326116 -0.355227 -23.0521 0.427976 -0.222162 -3.03943 0.427984 -0.222172 86.8668 -34.2042 -111.051 33.3887 5.40657 -20.0007 -2.81523 0.781075 -30.752 -3.37788 0.702446 -34.9448 -87.9834 -57.6122 83.0314 -28.3755 -4.41325 -16.8168 -11.3068 -16.5701 -42.9423 -9.49613 0.571369 -14.9604 -3.45835 3.8791 -0.696217 -6.92962 3.83227 2.06914 
-19.9273 99.0658 50.5359 101.474 36.0323 82.2848 -174.322 -3.47669 85.4613 -19.2312 6.74909 -2.22389 76.245 9.79448 -1.0163 14.7019 -12.8135 7.72377 173.262 -0.403953 85.7938 -26.3493 -8.65131 -2.35307 69.8217 -7.55309 -0.0259479 31.6753 -1.54718 1.23777 0.242188 7.94419 -90.0673 10.9859 0.451015 -0.176807 -0.684985 0.44279 -0.196499 -23.2208 0.483332 -0.0330746 -3.20811 0.483304 -0.0330916 86.7183 -34.662 -111.133 32.9924 5.52188 -16.975 -1.57592 2.48429 -35.9683 -4.8893 0.95727 -31.0538 -87.6986 -55.993 83.1739 -29.3552 -2.68542 -17.5035 -11.9653 -16.9207 -43.7567 -7.25204 0.332871 -14.2826 -2.59943 3.58033 -2.55378 -7.16083 3.68858 3.24475 
-19.6338 98.8292 49.9631 101.79 35.7996 81.6246 -174.247 -4.11432 84.9894 -19.4758 6.29123 -2.55307 76.7763 10.0949 -1.29114 15.1426 -12.2233 7.31726 175.277 4.36356 86.4651 -36.1879 -9.03966 -3.84011 70.423 -7.73115 -1.21163 27.6633 -0.413364 2.8945 0.29291 8.00944 -90.0157 10.8553 0.575964 -0.0852219 -0.81552 0.571648 -0.110487 -23.3517 0.574948 0.0918247 -3.33905 0.574946 0.0918279 86.6465 -34.5808 -111.297 32.7003 5.99477 -18.7973 -1.72735 2.53083 -33.1893 -3.49358 0.676144 -33.0953 -87.7592 -56.3013 83.1373 -29.1162 -2.73048 -18.5359 -11.7243 -16.6112 -43.781 -6.32287 0.236472 -13.8015 -2.60856 3.51345 -1.82448 -6.97605 3.62219 1.67102 
-19.1791 98.7941 49.3029 101.826 36.0556 81.6751 -174.575 -4.74212 84.691 -19.2333 6.38509 -2.23571 77.5574 10.8777 -0.67407 13.7399 -13.0502 7.16648 176.832 8.67202 87.752 -42.7744 -11.3768 -4.4332 71.2905 -8.29282 -2.58469 24.9296 0.4968 3.46033 0.275046 8.03777 -90.0131 10.7986 0.54163 -0.0765869 -0.872225 0.537732 -0.100352 -23.4083 0.53961 0.0897443 -3.39561 0.539605 0.089735 86.3038 -34.8655 -111.802 32.0163 6.91588 -20.6577 -2.70967 1.0102 -30.0513 -1.26534 0.16062 -35.944 -87.6383 -56.0258 83.2638 -29.1282 -2.52798 -19.6213 -11.6911 -16.7316 -43.4974 -4.9927 0.103244 -12.8713 -2.50631 3.55376 -2.54811 -7.45053 3.72139 2.0843 
-18.3277 98.7861 48.5952 101.199 36.1875 83.0373 -174.53 -4.9442 85.3632 -19.3625 5.91599 -1.76247 79.5205 11.8506 -1.43595 11.7284 -15.257 8.2313 178.155 11.9705 89.9831 -43.474 -13.2312 -4.0746 71.0615 -8.00908 -2.21468 25.2361 0.923583 1.78572 0.295713 8.01341 -90.129 10.8478 0.529345 -0.305926 -0.823075 0.515368 -0.328931 -23.3591 0.596822 -0.132689 -3.3464 0.596818 -0.132694 86.2115 -34.9518 -111.933 31.9228 6.97089 -20.8277 -2.99614 0.455304 -30.1685 -2.94801 0.605021 -35.4041 -87.4991 -55.6168 83.3964 -29.4034 -2.1856 -21.0165 -11.6276 -17.3768 -42.2632 -4.84001 0.0998083 -13.1942 -2.09967 3.57406 -2.88496 -8.29104 3.77424 2.10177 
-17.6263 98.8139 47.7857 101.198 37.8617 83.484 -174.758 -5.26354 85.785 -19.5014 7.18955 -1.11838 78.9155 11.6666 -1.03177 13.9107 -13.1387 7.43136 178.078 14.0774 91.5096 -40.145 -13.582 -2.98588 70.4626 -7.4651 -1.89476 25.7579 0.452916 2.5735 0.143332 8.04686 -90.2101 10.7804 0.188485 -0.435195 -0.890655 0.169153 -0.443079 -23.4255 0.31057 -0.358435 -3.41284 0.310586 -0.358433 86.6527 -35.1458 -111.052 32.5867 5.70922 -18.6345 -0.249518 4.55991 -35.656 -4.95422 0.991908 -31.5457 -87.6662 -55.1031 83.0787 -29.6836 -1.93705 -22.7336 -11.0307 -17.7287 -40.3877 -5.3033 0.173539 -14.6647 -1.54455 3.28815 -3.7972 -8.43873 3.57312 2.75059 
-16.4899 98.7925 46.9598 101.5 39.1419 84.0617 -174.54 -6.3028 86.7943 -19.505 8.2482 -0.58874 80.6892 12.9209 -1.18571 8.8963 -15.0505 5.44038 178.213 15.001 93.3623 -33.8491 -13.2494 -1.78701 68.947 -6.49167 -1.82611 26.0113 0.328417 2.64244 0.0436679 8.10918 -90.3226 10.6548 -0.0615312 -0.635713 -1.01635 -0.0894629 -0.632396 -23.5503 0.132361 -0.624817 -3.5376 0.132355 -0.624818 86.7846 -35.0701 -110.844 32.0604 6.38662 -18.8924 -1.5715 2.59752 -34.9603 -4.54706 0.946857 -32.8876 -87.6307 -54.4645 83.0273 -29.9768 -1.42308 -23.5307 -10.8029 -17.6695 -39.9764 -5.22253 0.177195 -15.1054 -1.0174 3.09179 -4.2166 -8.81685 3.44478 2.68333 
